<svg xmlns="http://www.w3.org/2000/svg" width="57" height="24" fill="none" viewBox="0 0 57 24">
  <rect width="56" height="23" x=".5" y=".5" stroke="#fff" rx="11.5"/>
  <mask id="a" width="30" height="15" x="14" y="6" fill="#000" maskUnits="userSpaceOnUse">
    <path fill="#fff" d="M14 6h30v15H14z"/>
    <path d="M16.196 15.112h2.928V16h-4.02V7.636h1.092v7.476Zm6.955.996a3.4 3.4 0 0 1-1.68-.42 3.053 3.053 0 0 1-1.176-1.188c-.28-.52-.42-1.12-.42-1.8 0-.672.144-1.264.432-1.776.296-.52.696-.916 1.2-1.188a3.424 3.424 0 0 1 1.692-.42c.624 0 1.188.14 1.692.42.504.272.9.664 1.188 1.176.296.512.444 1.108.444 1.788 0 .68-.152 1.28-.456 1.8a3.09 3.09 0 0 1-1.212 1.188c-.512.28-1.08.42-1.704.42Zm0-.96c.392 0 .76-.092 1.104-.276.344-.184.62-.46.828-.828.216-.368.324-.816.324-1.344 0-.528-.104-.976-.312-1.344a2.003 2.003 0 0 0-.816-.816 2.237 2.237 0 0 0-1.092-.276c-.4 0-.768.092-1.104.276a1.951 1.951 0 0 0-.792.816c-.2.368-.3.816-.3 1.344 0 .536.096.988.288 1.356.2.368.464.644.792.828.328.176.688.264 1.08.264Zm7.52-5.832c.568 0 1.064.124 1.488.372.432.248.752.56.96.936v-1.2h1.104v6.72c0 .6-.128 1.132-.384 1.596-.256.472-.624.84-1.104 1.104-.472.264-1.024.396-1.656.396-.864 0-1.584-.204-2.16-.612a2.392 2.392 0 0 1-1.02-1.668h1.08c.12.4.368.72.744.96.376.248.828.372 1.356.372.6 0 1.088-.188 1.464-.564.384-.376.576-.904.576-1.584v-1.38a2.628 2.628 0 0 1-.96.96c-.424.256-.92.384-1.488.384a3.043 3.043 0 0 1-1.596-.432 3.03 3.03 0 0 1-1.116-1.212c-.272-.52-.408-1.112-.408-1.776 0-.672.136-1.26.408-1.764a2.964 2.964 0 0 1 1.116-1.188 3.11 3.11 0 0 1 1.596-.42ZM33.12 12.7c0-.496-.1-.928-.3-1.296a2.065 2.065 0 0 0-.816-.84 2.14 2.14 0 0 0-1.116-.3c-.408 0-.78.096-1.116.288a2.09 2.09 0 0 0-.804.84c-.2.368-.3.8-.3 1.296 0 .504.1.944.3 1.32.2.368.468.652.804.852a2.21 2.21 0 0 0 1.116.288c.408 0 .78-.096 1.116-.288.344-.2.616-.484.816-.852.2-.376.3-.812.3-1.308Zm5.818 3.408a3.4 3.4 0 0 1-1.68-.42A3.053 3.053 0 0 1 36.08 14.5c-.28-.52-.42-1.12-.42-1.8 0-.672.143-1.264.431-1.776a3.02 3.02 0 0 1 1.2-1.188 3.424 3.424 0 0 1 1.692-.42c.624 0 1.188.14 1.692.42.505.272.9.664 1.188 1.176.297.512.445 1.108.445 1.788 0 .68-.152 1.28-.456 1.8a3.09 3.09 0 0 1-1.212 1.188c-.512.28-1.08.42-1.704.42Zm0-.96c.392 0 .76-.092 1.104-.276.344-.184.62-.46.828-.828.215-.368.324-.816.324-1.344 0-.528-.104-.976-.313-1.344a2.003 2.003 0 0 0-.816-.816 2.237 2.237 0 0 0-1.092-.276c-.4 0-.767.092-1.104.276a1.951 1.951 0 0 0-.791.816c-.2.368-.3.816-.3 1.344 0 .536.096.988.288 1.356.2.368.464.644.791.828.328.176.688.264 1.08.264Z"/>
  </mask>
  <path fill="#fff" d="M16.196 15.112h2.928V16h-4.02V7.636h1.092v7.476Zm6.955.996a3.4 3.4 0 0 1-1.68-.42 3.053 3.053 0 0 1-1.176-1.188c-.28-.52-.42-1.12-.42-1.8 0-.672.144-1.264.432-1.776.296-.52.696-.916 1.2-1.188a3.424 3.424 0 0 1 1.692-.42c.624 0 1.188.14 1.692.42.504.272.9.664 1.188 1.176.296.512.444 1.108.444 1.788 0 .68-.152 1.28-.456 1.8a3.09 3.09 0 0 1-1.212 1.188c-.512.28-1.08.42-1.704.42Zm0-.96c.392 0 .76-.092 1.104-.276.344-.184.62-.46.828-.828.216-.368.324-.816.324-1.344 0-.528-.104-.976-.312-1.344a2.003 2.003 0 0 0-.816-.816 2.237 2.237 0 0 0-1.092-.276c-.4 0-.768.092-1.104.276a1.951 1.951 0 0 0-.792.816c-.2.368-.3.816-.3 1.344 0 .536.096.988.288 1.356.2.368.464.644.792.828.328.176.688.264 1.08.264Zm7.52-5.832c.568 0 1.064.124 1.488.372.432.248.752.56.96.936v-1.2h1.104v6.72c0 .6-.128 1.132-.384 1.596-.256.472-.624.84-1.104 1.104-.472.264-1.024.396-1.656.396-.864 0-1.584-.204-2.16-.612a2.392 2.392 0 0 1-1.02-1.668h1.08c.12.4.368.72.744.96.376.248.828.372 1.356.372.6 0 1.088-.188 1.464-.564.384-.376.576-.904.576-1.584v-1.38a2.628 2.628 0 0 1-.96.96c-.424.256-.92.384-1.488.384a3.043 3.043 0 0 1-1.596-.432 3.03 3.03 0 0 1-1.116-1.212c-.272-.52-.408-1.112-.408-1.776 0-.672.136-1.26.408-1.764a2.964 2.964 0 0 1 1.116-1.188 3.11 3.11 0 0 1 1.596-.42ZM33.12 12.7c0-.496-.1-.928-.3-1.296a2.065 2.065 0 0 0-.816-.84 2.14 2.14 0 0 0-1.116-.3c-.408 0-.78.096-1.116.288a2.09 2.09 0 0 0-.804.84c-.2.368-.3.8-.3 1.296 0 .504.1.944.3 1.32.2.368.468.652.804.852a2.21 2.21 0 0 0 1.116.288c.408 0 .78-.096 1.116-.288.344-.2.616-.484.816-.852.2-.376.3-.812.3-1.308Zm5.818 3.408a3.4 3.4 0 0 1-1.68-.42A3.053 3.053 0 0 1 36.08 14.5c-.28-.52-.42-1.12-.42-1.8 0-.672.143-1.264.431-1.776a3.02 3.02 0 0 1 1.2-1.188 3.424 3.424 0 0 1 1.692-.42c.624 0 1.188.14 1.692.42.505.272.9.664 1.188 1.176.297.512.445 1.108.445 1.788 0 .68-.152 1.28-.456 1.8a3.09 3.09 0 0 1-1.212 1.188c-.512.28-1.08.42-1.704.42Zm0-.96c.392 0 .76-.092 1.104-.276.344-.184.62-.46.828-.828.215-.368.324-.816.324-1.344 0-.528-.104-.976-.313-1.344a2.003 2.003 0 0 0-.816-.816 2.237 2.237 0 0 0-1.092-.276c-.4 0-.767.092-1.104.276a1.951 1.951 0 0 0-.791.816c-.2.368-.3.816-.3 1.344 0 .536.096.988.288 1.356.2.368.464.644.791.828.328.176.688.264 1.08.264Z"/>
  <path fill="#fff" d="M16.196 15.112h-1v1h1v-1Zm2.928 0h1v-1h-1v1Zm0 .888v1h1v-1h-1Zm-4.02 0h-1v1h1v-1Zm0-8.364v-1h-1v1h1Zm1.092 0h1v-1h-1v1Zm0 8.476h2.928v-2h-2.928v2Zm1.928-1V16h2v-.888h-2Zm1-.112h-4.02v2h4.02v-2Zm-3.02 1V7.636h-2V16h2Zm-1-7.364h1.092v-2h-1.092v2Zm.092-1v7.476h2V7.636h-2Zm6.275 8.052-.491.87.006.004.485-.874ZM20.295 14.5l-.88.474.004.008.005.008.871-.49Zm.012-3.576-.869-.495-.002.005.871.49Zm1.2-1.188.475.88.011-.006-.486-.874Zm3.384 0-.485.874.01.006.475-.88Zm1.188 1.176-.871.49.006.01.865-.5Zm-.012 3.588-.863-.505-.002.005.865.5Zm-1.212 1.188.48.877-.48-.877Zm.228-1.644-.862-.506-.004.007-.004.007.87.492Zm-.804-3.504-.48.877.008.005.008.004.464-.886Zm-2.196 0 .473.881.008-.004-.48-.877Zm-.792.816.879.478-.879-.478Zm-.012 2.7-.886.463.004.007.004.008.878-.478Zm.792.828-.489.872.008.005.009.004.472-.881Zm1.08.224c-.458 0-.849-.102-1.194-.294l-.971 1.748a4.4 4.4 0 0 0 2.165.546v-2Zm-1.188-.29a2.053 2.053 0 0 1-.796-.808l-1.743.98a4.053 4.053 0 0 0 1.556 1.569l.983-1.742Zm-.787-.792c-.19-.354-.3-.786-.3-1.326h-2c0 .82.17 1.588.539 2.274l1.76-.948Zm-.3-1.326c0-.525.11-.944.303-1.286l-1.743-.98c-.384.682-.56 1.447-.56 2.266h2Zm.3-1.281c.208-.365.475-.624.806-.803l-.95-1.76a4.006 4.006 0 0 0-1.594 1.573l1.738.99Zm.817-.809c.343-.19.738-.294 1.206-.294v-2a4.42 4.42 0 0 0-2.177.546l.971 1.748Zm1.206-.294c.469 0 .863.103 1.207.294l.971-1.748a4.423 4.423 0 0 0-2.178-.546v2Zm1.217.3c.334.18.594.435.792.786l1.743-.98a3.948 3.948 0 0 0-1.585-1.566l-.95 1.76Zm.798.796c.195.339.31.757.31 1.288h2c0-.829-.183-1.603-.579-2.288l-1.731 1Zm.31 1.288c0 .526-.117.947-.32 1.295l1.727 1.01c.404-.692.592-1.471.592-2.305h-2Zm-.322 1.3a2.09 2.09 0 0 1-.826.81l.96 1.755A4.09 4.09 0 0 0 26.932 15l-1.731-1Zm-.826.81a2.494 2.494 0 0 1-1.225.298v2c.78 0 1.515-.177 2.184-.543l-.96-1.754Zm-1.225 1.338c.556 0 1.086-.132 1.576-.394l-.943-1.764a1.306 1.306 0 0 1-.633.158v2Zm1.576-.394a3.06 3.06 0 0 0 1.227-1.218l-1.741-.984a1.064 1.064 0 0 1-.43.438l.944 1.764Zm1.219-1.204c.325-.554.461-1.186.461-1.85h-2c0 .392-.08.656-.186.838l1.725 1.012Zm.461-1.85c0-.658-.13-1.285-.441-1.836l-1.741.984c.104.185.182.454.182.852h2Zm-.441-1.836a3 3 0 0 0-1.223-1.21l-.928 1.772c.147.076.285.202.41.422l1.74-.984ZM24.76 9.663a3.237 3.237 0 0 0-1.573-.399v2c.229 0 .427.052.612.153l.96-1.754Zm-1.573-.399c-.56 0-1.094.13-1.584.399l.96 1.754c.183-.1.385-.153.624-.153v-2Zm-1.576.395c-.521.28-.917.702-1.198 1.22l1.757.955c.119-.22.25-.34.386-.413l-.945-1.762Zm-1.198 1.22c-.298.547-.422 1.169-.422 1.821h2c0-.404.077-.678.179-.866l-1.757-.955ZM19.99 12.7c0 .652.117 1.272.402 1.819l1.773-.926c-.099-.19-.175-.473-.175-.893h-2Zm.41 1.834c.28.514.67.936 1.181 1.222l.979-1.744a1.037 1.037 0 0 1-.403-.434l-1.757.956Zm1.198 1.231a3.248 3.248 0 0 0 1.552.383v-2c-.236 0-.432-.051-.607-.145l-.945 1.762Zm10.56-6.077-.505.863.007.004.498-.867Zm.96.936-.875.484 1.875-.484h-1Zm0-1.2v-1h-1v1h1Zm1.104 0h1v-1h-1v1Zm-.384 8.316-.875-.483-.004.006.88.477Zm-1.104 1.104-.482-.876-.006.003.488.873Zm-3.816-.216-.578.816.578-.816ZM27.9 16.96v-1h-1.158l.169 1.146.99-.146Zm1.08 0 .958-.287-.214-.713h-.744v1Zm.744.96.55-.835-.006-.004-.006-.004-.538.843Zm2.82-.192-.7-.715-.007.008.707.707Zm.576-2.964h1v-3.817l-1.871 3.327.871.49Zm-.96.96-.517-.856.517.856Zm-3.084-.048-.52.854.006.003.514-.857Zm-1.116-1.212.886-.463-.886.463Zm0-3.54.88.475.003-.006-.883-.469Zm1.116-1.188-.504-.864-.006.004.51.86Zm2.928.828-.511.86.012.006.012.007.487-.873Zm-2.232-.012-.496-.868.496.868Zm-.804.84.879.478-.879-.478Zm0 2.616-.883.47.005.008.878-.478Zm.804.852-.511.86.007.004.008.004.496-.868Zm2.232 0 .496.868.007-.003-.503-.865Zm.816-.852.879.478.004-.008-.883-.47Zm-2.148-3.692c.419 0 .735.09.983.235l1.01-1.726c-.6-.351-1.276-.509-1.993-.509v2Zm.99.24c.3.171.477.36.583.552l1.75-.968c-.31-.56-.772-.995-1.337-1.32l-.996 1.735Zm2.458.068v-1.2h-2v1.2h2Zm-1-.2h1.104v-2H33.12v2Zm.104-1v6.72h2v-6.72h-2Zm0 6.72c0 .454-.095.816-.26 1.113l1.752.966c.348-.63.508-1.333.508-2.079h-2Zm-.263 1.12c-.163.3-.391.53-.707.704l.964 1.752a3.717 3.717 0 0 0 1.501-1.503l-1.758-.954Zm-.713.707c-.3.168-.678.269-1.168.269v2c.774 0 1.5-.163 2.144-.523l-.976-1.746Zm-1.168.269c-.704 0-1.21-.164-1.582-.428l-1.156 1.632c.78.552 1.714.796 2.738.796v-2Zm-1.582-.428a1.395 1.395 0 0 1-.609-.998l-1.978.292a3.39 3.39 0 0 0 1.431 2.338l1.156-1.632Zm-1.598.148h1.08v-2H27.9v2Zm.122-.713a2.693 2.693 0 0 0 1.164 1.516l1.076-1.686a.696.696 0 0 1-.324-.404l-1.916.574Zm1.152 1.508c.566.373 1.217.537 1.906.537v-2c-.367 0-.62-.084-.805-.207l-1.101 1.67Zm1.906.537c.828 0 1.583-.269 2.171-.857l-1.414-1.414c-.164.164-.385.271-.757.271v2Zm2.164-.85c.624-.61.876-1.424.876-2.298h-2c0 .486-.131.728-.276.87l1.4 1.428Zm.876-2.298v-1.38h-2v1.38h2Zm-1.871-1.87c-.122.215-.31.416-.606.594l1.034 1.712a3.626 3.626 0 0 0 1.315-1.326l-1.743-.98Zm-.606.594c-.246.149-.558.24-.97.24v2c.722 0 1.402-.165 2.004-.528l-1.034-1.712Zm-.97.24c-.412 0-.765-.099-1.082-.29l-1.03 1.716a4.042 4.042 0 0 0 2.111.574v-2Zm-1.076-.286a2.031 2.031 0 0 1-.75-.821l-1.773.927c.35.67.845 1.213 1.481 1.602l1.042-1.708Zm-.75-.821c-.189-.36-.295-.789-.295-1.313h-2c0 .804.166 1.559.522 2.24L28.845 14Zm-.295-1.313c0-.535.108-.954.288-1.29l-1.76-.949c-.363.673-.528 1.43-.528 2.239h2Zm.291-1.295c.191-.36.438-.616.743-.797l-1.02-1.72a3.964 3.964 0 0 0-1.489 1.579l1.766.938Zm.737-.793a2.11 2.11 0 0 1 1.092-.284v-2c-.752 0-1.459.182-2.1.556L29.58 10.6Zm4.54 2.1c0-.632-.128-1.234-.421-1.773l-1.758.955c.107.196.18.458.18.818h2Zm-.421-1.773A3.065 3.065 0 0 0 32.49 9.69l-.974 1.746c.168.094.309.232.425.445l1.757-.955Zm-1.183-1.222a3.14 3.14 0 0 0-1.628-.441v2c.236 0 .43.056.605.16l1.023-1.72Zm-1.628-.441c-.572 0-1.117.137-1.612.42l.992 1.736c.177-.1.376-.156.62-.156v-2Zm-1.612.42c-.51.292-.905.713-1.186 1.23l1.757.956c.119-.22.26-.357.421-.45l-.992-1.736Zm-1.186 1.23c-.294.54-.422 1.142-.422 1.774h2c0-.36.072-.622.179-.819l-1.758-.954Zm-.422 1.774c0 .638.127 1.245.417 1.79l1.766-.94c-.11-.207-.183-.48-.183-.85h-2Zm.421 1.797c.28.515.67.936 1.172 1.234l1.023-1.718a1.177 1.177 0 0 1-.437-.47l-1.758.954Zm1.187 1.243c.495.283 1.04.42 1.612.42v-2a1.21 1.21 0 0 1-.62-.156l-.992 1.736Zm1.612.42c.572 0 1.117-.137 1.612-.42l-.992-1.736a1.21 1.21 0 0 1-.62.156v2Zm1.619-.423c.51-.297.91-.72 1.192-1.24l-1.758-.954a1.15 1.15 0 0 1-.44.464l1.006 1.73Zm1.196-1.247c.289-.543.417-1.145.417-1.778h-2c0 .36-.071.63-.183.838l1.766.94Zm3.555 1.21-.492.87.006.004.486-.874ZM36.08 14.5l-.88.474.003.008.005.008.871-.49Zm.011-3.576-.868-.495-.003.005.872.49Zm1.2-1.188.475.88.011-.006-.486-.874Zm3.384 0-.485.874.01.006.475-.88Zm1.188 1.176-.871.49.006.01.865-.5Zm-.011 3.588-.864-.505-.002.005.865.5Zm-1.212 1.188.48.877-.48-.877Zm.227-1.644-.862-.506-.004.007-.004.007.87.492Zm-.803-3.504-.48.877.007.005.008.004.465-.886Zm-2.197 0 .473.881.008-.004-.48-.877Zm-.791.816.878.478-.878-.478Zm-.012 2.7-.887.463.004.007.004.008.879-.478Zm.791.828-.489.872.009.005.008.004.472-.881Zm1.08.224c-.458 0-.849-.102-1.194-.294l-.971 1.748a4.4 4.4 0 0 0 2.166.546v-2Zm-1.188-.29a2.053 2.053 0 0 1-.796-.808l-1.743.98a4.052 4.052 0 0 0 1.556 1.569l.983-1.742Zm-.787-.792c-.19-.354-.3-.786-.3-1.326h-2c0 .82.17 1.588.54 2.274l1.76-.948Zm-.3-1.326c0-.525.11-.944.303-1.286l-1.743-.98c-.384.682-.56 1.447-.56 2.266h2Zm.3-1.281c.208-.365.475-.624.806-.803l-.95-1.76a4.005 4.005 0 0 0-1.593 1.573l1.738.99Zm.817-.809c.343-.19.738-.294 1.206-.294v-2c-.779 0-1.513.177-2.177.546l.971 1.748Zm1.206-.294c.469 0 .863.103 1.207.294l.971-1.748a4.424 4.424 0 0 0-2.178-.546v2Zm1.218.3c.333.18.593.435.791.786l1.743-.98a3.948 3.948 0 0 0-1.584-1.566l-.95 1.76Zm.797.796c.195.339.31.757.31 1.288h2c0-.829-.182-1.603-.579-2.288l-1.731 1Zm.31 1.288c0 .526-.116.947-.32 1.295l1.727 1.01c.404-.692.593-1.471.593-2.305h-2Zm-.322 1.3a2.09 2.09 0 0 1-.826.81l.96 1.755A4.09 4.09 0 0 0 42.717 15l-1.731-1Zm-.826.81a2.494 2.494 0 0 1-1.224.298v2c.78 0 1.514-.177 2.183-.543l-.96-1.754Zm-1.224 1.338c.555 0 1.085-.132 1.575-.394l-.943-1.764a1.306 1.306 0 0 1-.633.158v2Zm1.575-.394a3.06 3.06 0 0 0 1.227-1.218l-1.741-.984a1.064 1.064 0 0 1-.43.438l.944 1.764Zm1.219-1.204c.325-.554.462-1.186.462-1.85h-2c0 .392-.08.656-.187.838l1.725 1.012Zm.462-1.85c0-.658-.13-1.285-.442-1.836l-1.741.984c.105.185.183.454.183.852h2Zm-.442-1.836a3.001 3.001 0 0 0-1.222-1.21l-.929 1.772c.147.076.285.202.41.422l1.741-.984Zm-1.206-1.201a3.237 3.237 0 0 0-1.573-.399v2c.229 0 .427.052.612.153l.96-1.754Zm-1.573-.399c-.56 0-1.094.13-1.584.399l.96 1.754c.183-.1.385-.153.624-.153v-2Zm-1.576.395a2.95 2.95 0 0 0-1.198 1.22l1.757.955c.12-.22.251-.34.386-.413l-.945-1.762Zm-1.198 1.22c-.298.547-.422 1.169-.422 1.821h2c0-.404.077-.678.18-.866l-1.758-.955Zm-.422 1.821c0 .652.117 1.272.402 1.819l1.773-.926c-.099-.19-.175-.473-.175-.893h-2Zm.41 1.834c.28.514.67.936 1.181 1.222l.979-1.744a1.036 1.036 0 0 1-.403-.434l-1.757.956Zm1.198 1.231a3.248 3.248 0 0 0 1.553.383v-2a1.25 1.25 0 0 1-.608-.145l-.945 1.762Z" mask="url(#a)"/>
</svg>
